<svg xmlns="http://www.w3.org/2000/svg" enable-background="new 0 0 100 74.742" viewBox="0 0 100 74.742" id="give">
  <path d="M94.8350143,51.3614464c-0.5332031-2.7041016-1.9785156-4.8945313-4.0693359-6.1679688
	c-2.1611328-1.3183594-4.8916016-1.5986328-7.6904297-0.7880859c-3.6556396,1.0565186-7.4734497,2.2720337-10.7260132,3.3457642
	l13.6332397-13.7290649c3.1816406-3.2026367,4.9248047-7.4536133,4.9082031-11.9697266
	c-0.0166016-4.5131836-1.7910156-8.7475586-4.9912109-11.9204102C82.7178268,6.9634972,78.4922409,5.21838,74.00103,5.21838
	c-4.5351563,0-8.7949219,1.769043-11.9970741,4.9853516c0,0-0.7089844,0.7158203-1.4150391,1.4267578
	c-0.3710938-0.3725586-0.8388672-0.840332-1.4257813-1.4272461c-3.1875-3.2143555-7.4389648-4.9848633-11.9707031-4.9848633
	c-4.5078125,0-8.7426758,1.7451172-11.9213867,4.9101563c-3.2050781,3.1777344-4.9780273,7.4130859-4.9926758,11.9267578
	c-0.0146484,4.5166016,1.7333984,8.7670898,4.9179688,11.965332l2.3552856,2.3711548
	c-1.2089844-0.2717285-2.3214111-0.499939-3.28302-0.6655884C29.318409,34.871212,10.0693865,42.7520714,6.261281,44.339962
	c-1.0195313,0.4248047-1.5009766,1.5957031-1.0756836,2.6152344c0.425293,1.0205078,1.59375,1.5048828,2.6157227,1.0761719
	c10.6806631-4.4541016,23.2431641-8.7949219,25.7880859-8.3632813c7.1035156,1.2236328,23.4584961,6.1923828,24.5717773,6.5322266
	c3.3632813,1.2705078,4.5107422,3.2822266,3.6123047,6.3242188c-0.3217773,1.090271-0.7965698,1.8865356-1.8178101,2.2172852
	c-0.0038452,0.0010986-0.0076294,0.0022583-0.0114136,0.003418c-0.6138916,0.1959839-1.4237061,0.2253418-2.5155029,0.0498047
	l-21.6376953-3.8164063c-1.0864258-0.1894531-2.1245117,0.5351563-2.3168945,1.6220703
	c-0.1918945,1.0878906,0.534668,2.125,1.6225586,2.3173828l21.6689453,3.8212891
	c0.6992188,0.1123047,1.3466797,0.1640625,1.9453125,0.1640625c0.6397095,0,1.2180786-0.0653687,1.7523193-0.1743164
	c0.0447388,0.0029907,0.0883179,0.0131836,0.1334229,0.0131836c0.0136719,0,0.0273438,0,0.0410156,0
	c0.4422607-0.0095215,0.8618774-0.1712036,1.2034302-0.4442139c1.5889282-0.6951294,2.594059-1.9075928,3.2213173-3.210144
	l0.9307251-0.9459229c2.3600464-0.8312988,10.6334839-3.7092285,18.1933594-5.8948364
	c1.7060547-0.4931641,3.3046875-0.3642578,4.4980469,0.3613281c1.1376953,0.6943359,1.9072266,1.9140625,2.2265625,3.5273438
	c0.2626953,1.3330078-0.4238281,3.0771484-2.5507813,3.7597656l-19.4160156,8.015625
	c-2.8564453,1.0634727-7.338871,1.9248009-10.3330116,1.5156212l-38.3735352-6.1308556l-0.2763672-0.0253906
	c-0.0185547,0-0.0375977,0-0.0566406,0c-2.0463867,0-5.0893545,2.1298828-6.7299795,3.4082031
	c-0.8710938,0.6787109-1.0273438,1.9345665-0.3491211,2.8066368c0.6782227,0.8701172,1.9350586,1.0273438,2.8066406,0.3496094
	c1.5795889-1.2285156,3.5541983-2.4150352,4.1928701-2.5546837l38.1992188,6.1025352
	c0.7041016,0.0966797,1.453125,0.140625,2.2265625,0.140625c3.4785156,0,7.4658241-0.8867188,10.1552773-1.8896484
	l19.2578125-7.9560509C93.3740768,58.4473839,95.5459518,54.9639854,94.8350143,51.3614464z M59.5049324,42.4317589
	l-0.1132813-0.0385742c-0.4526978-0.1384277-7.3903198-2.2574463-14.3361206-4.1223145l-7.0217896-7.0695801
	c-2.4326172-2.4433594-3.7666016-5.6865234-3.7553711-9.1333008c0.0112305-3.4433594,1.3637695-6.6748047,3.8120117-9.1020508
	c2.4272461-2.4165039,5.659668-3.7475586,9.1020508-3.7475586c3.4570313,0,6.699707,1.3500977,9.1367188,3.8071289
	c0,0.0004883,2.5595703,2.5585938,2.7744141,2.7836914c0.3789063,0.4174805,0.9160156,0.6557617,1.4804688,0.6557617
	c0.8466797,0,0.8466797,0,4.2578163-3.4423828C67.2842331,10.5694542,70.5371628,9.21838,74.00103,9.21838
	c3.4257813,0,6.6494141,1.3310547,9.0791016,3.7509766c2.4443359,2.4233398,3.7978516,5.6542969,3.8105469,9.0976563
	c0.0126953,3.4472656-1.3173828,6.6914063-3.7441406,9.1342773L65.8242722,48.6446495
	C65.1352463,45.8967857,62.9836311,43.7297325,59.5049324,42.4317589z"></path>
</svg>
